<svg xmlns="http://www.w3.org/2000/svg" viewBox="0 0 576.5 576.5" xmlns:v="https://vecta.io/nano"><circle cx="288.25" cy="288.25" r="288.25" fill="#be1e2d"/><path d="M501.27 347.66c-32.57 38.08-78.62 75.39-132.54 102.29-45.02 22.46-87.23 36.26-126.06 42.67-35.68 5.89-68.52 5.54-98.05-.07-59.09-11.23-95.29-35.59-114.47-74.39-16.82-34.03-15.31-78.2 4.63-121.15l2.76-5.8c2.38-4.84 9.6-3.59 10.21 1.77 5.45 47.85 30.2 89.84 66.27 118.02 5.97 5.64 12.64 10.45 19.72 14.71 10.92 6.57 23.42 11.47 37.09 14.81 19.83 4.85 42.12 6.43 65.63 5.09a314.76 314.76 0 0 0 28.71-3c8.21-1.22 16.51-2.77 24.84-4.62 39.5-8.78 81.56-24.97 118.56-46.59 46.68-27.28 86.98-63.01 113.36-99.37 26.15-36.06 39.99-72.95 32.63-108.38 11.7 49.85-7.48 110.45-53.29 164.01z" fill="#f38998"/><path d="M494.39 229.21c-1.72-4.66-8.33-3.71-9.25 1.17-.74 3.91-4.85 15.24-11.55 26.35-12.34 20.48-25.15 34.21-45.76 51.82-10.29 8.79-53.15 45.51-80.23 37.02-5.9-1.85-4.45-9.66 1.79-19.57 8.93-14.19 20.54-34.78 24.82-40.86l51.04-73.41c3.63-7.27-1.14-15.92-9.23-16.73l-27.6-2.76c-7-.7-13.8 2.5-17.72 8.33l-.9 1.34c-1.74 2.59-5.55 2.43-7.16-.25a39.58 39.58 0 0 0-3.03-4.37c-22.21-27.96-77.3-22.35-130.83 10.59-8.51 5.23-16.98 11.15-25.27 17.74-60.47 48.05-88.62 113.26-62.88 145.67 20.29 25.53 67.99 23.06 116.89-2.65 2.84 6.84 3.26 20.22 26.41 28.79 18.96 7.02 40.75 5.81 58.51 2.24 6.98-1.4 13.34-3.17 18.66-4.94 23.63-7.87 51.56-22.29 70.69-33.44 23.43-13.65 33.09-23.46 38.55-27.94 3.74-3.07 19-16.28 24.33-22.72 5-6.04 6.98-8.86 8.58-16.54 1.36-6.56.56-18.57 0-24.56-1.59-17.12-3.16-24.87-8.87-40.33zm-216.48 81.6c-12.26 11.92-25.2 21.55-37.51 28.4-23.35 13-44.46 16-54.46 5.71-14.28-14.68-.88-51.2 29.92-84.11a196.92 196.92 0 0 1 6.73-6.87c35.53-34.55 76.7-49.82 91.98-34.12 15.27 15.72-1.14 56.45-36.66 90.99z" fill="#fff"/><path d="M525.47 273.9h0c-2.97 3.94-9.23 1.65-8.97-3.28l.18-6.79c0-43.76-22.34-82.75-57.17-107.94-4.34-3.42-9.03-6.41-14.03-9.02-4.36-2.28-8.94-4.27-13.72-5.99-25.79-9.29-57.02-10.71-87.48-8-4.96.44-9.94 1.07-14.92 1.87-11.59 1.85-23.22 4.61-34.81 8.11-.01.01-.02.01-.02.01-21.51 6.5-42.85 15.52-63.47 25.89-42.11 21.15-80.43 49.21-106.61 83.37-21.73 28.35-36.45 60.97-36.86 91.08-.05 3.46-4.63 4.68-6.36 1.69-13.94-24.04-20.06-53.78-21.41-83.24a22.9 22.9 0 0 1 4.43-14.63l.37-.51c30.79-41.86 76.16-82.24 142-115.01 19.51-9.71 41.74-18.79 65.33-26.41 48.81-15.78 103.42-25.3 151.71-21.19a200.69 200.69 0 0 1 10.44 1.17c39.56 5.42 75.98 22.33 97.47 49.68 28.38 36.11 30.14 91.16-6.1 139.14z" fill="#f9c6d2"/></svg>