<svg xmlns="http://www.w3.org/2000/svg" width="75" height="75" fill="none" xmlns:v="https://vecta.io/nano"><g clip-path="url(#A)"><path fill-rule="evenodd" d="M75 37.5C75 58.211 58.211 75 37.5 75c-13.785 0-25.833-7.438-32.349-18.52 2.696 3.852 7.092 6.349 13.663 7.598 3.842.73 8.114.775 12.756.009 5.052-.834 10.543-2.629 16.4-5.551 7.015-3.499 13.006-8.353 17.243-13.307l-.001-.001c5.96-6.968 8.455-14.852 6.933-21.337.958 4.61-.843 9.409-4.245 14.1-3.432 4.731-8.675 9.379-14.748 12.928-4.813 2.813-10.285 4.919-15.424 6.061a46.38 46.38 0 0 1-3.232.601c-1.238.187-2.485.317-3.735.39-3.058.174-5.958-.031-8.538-.662-1.778-.435-3.404-1.072-4.825-1.927-.922-.555-1.789-1.18-2.566-1.914-4.692-3.666-7.912-9.129-8.621-15.354-.079-.697-1.018-.86-1.328-.23l-.359.755C2.231 43.58 1.812 48.644 3.257 52.81 1.164 48.135 0 42.954 0 37.5 0 16.789 16.789 0 37.5 0c13.73 0 25.737 7.379 32.27 18.387a12.62 12.62 0 0 0-.616-.856c-2.795-3.558-7.533-5.758-12.68-6.463a26.59 26.59 0 0 0-1.358-.152c-6.282-.534-13.387.704-19.737 2.757-3.069.992-5.961 2.173-8.499 3.436-8.566 4.263-14.468 9.516-18.474 14.962l-.048.066a2.98 2.98 0 0 0-.576 1.903c.175 3.832.972 7.702 2.785 10.829.225.389.821.23.827-.22.053-3.917 1.968-8.161 4.795-11.849 3.406-4.444 8.391-8.094 13.869-10.846 2.683-1.349 5.459-2.522 8.26-3.369 1.484-.453 2.997-.806 4.529-1.055a27.58 27.58 0 0 1 1.941-.243c3.963-.352 8.026-.168 11.381 1.041a14.29 14.29 0 0 1 1.785.779c.644.334 1.255.727 1.825 1.174 4.532 3.277 7.438 8.349 7.438 14.042l-.023.883c-.034.642.781.94 1.167.427l-.001-.001c3.962-5.245 4.433-11.14 2.291-15.676C73.428 25.191 75 31.162 75 37.5zm-11.885-7.529c.119-.635.979-.758 1.203-.152l.001-.002c.742 2.011.946 3.019 1.153 5.245.073.779.177 2.342 0 3.195-.208.999-.466 1.366-1.116 2.152-.693.838-2.678 2.557-3.165 2.956-.12.098-.255.216-.412.353h0c-.773.674-2.069 1.805-4.603 3.281-2.489 1.45-6.123 3.326-9.197 4.35-.692.231-1.52.461-2.428.643-2.311.465-5.145.622-7.612-.291-2.542-.94-2.977-2.327-3.273-3.272-.055-.175-.105-.334-.163-.473-6.362 3.345-12.567 3.666-15.207.345-3.349-4.216.313-12.7 8.18-18.951a33.39 33.39 0 0 1 3.288-2.308c6.964-4.286 14.131-5.015 17.02-1.378a5.15 5.15 0 0 1 .394.569.55.55 0 0 0 .931.033l.117-.174a2.48 2.48 0 0 1 2.305-1.084l3.591.359a1.51 1.51 0 0 1 1.172.773 1.51 1.51 0 0 1 .029 1.404l-6.64 9.55c-.297.421-.863 1.377-1.504 2.458h0l-1.725 2.858c-.812 1.289-1 2.305-.233 2.546 3.512 1.102 9.064-3.642 10.425-4.805h0l.013-.011c2.681-2.291 4.348-4.078 5.953-6.742.872-1.445 1.407-2.919 1.503-3.428zm1.204-.154l-.001-.002.001.001v.001zM31.275 44.13c1.602-.892 3.285-2.144 4.88-3.695 4.621-4.493 6.756-9.795 4.768-11.837s-7.344-.056-11.966 4.439a26.17 26.17 0 0 0-.875.894c-4.007 4.281-5.75 9.032-3.892 10.942 1.301 1.338 4.047.948 7.085-.743z" fill="#fff"/></g><defs><clipPath id="A"><path fill="#fff" d="M0 0h75v75H0z"/></clipPath></defs></svg>