<svg xmlns="http://www.w3.org/2000/svg" width="75" height="75" fill="none" xmlns:v="https://vecta.io/nano"><path d="M37.5 75C58.211 75 75 58.211 75 37.5S58.211 0 37.5 0 0 16.789 0 37.5 16.789 75 37.5 75z" fill="#be1e2d"/><path d="M65.213 45.229c-4.237 4.954-10.228 9.808-17.243 13.307-5.857 2.922-11.348 4.717-16.4 5.551-4.642.766-8.914.721-12.756-.009-7.687-1.461-12.397-4.63-14.892-9.678-2.188-4.427-1.992-10.173.602-15.761l.359-.755c.31-.63 1.249-.467 1.328.23.709 6.225 3.929 11.688 8.621 15.354.777.734 1.644 1.359 2.566 1.914 1.421.855 3.047 1.492 4.825 1.927 2.58.631 5.48.836 8.538.662a40.91 40.91 0 0 0 3.735-.39c1.068-.159 2.148-.36 3.232-.601 5.139-1.142 10.611-3.248 15.424-6.061 6.073-3.549 11.316-8.197 14.748-12.928 3.402-4.691 5.203-9.49 4.245-14.1 1.522 6.485-.973 14.369-6.933 21.337z" fill="#f38998"/><path d="M64.318 29.819c-.224-.606-1.084-.483-1.203.152-.096.509-.631 1.983-1.503 3.428-1.605 2.664-3.272 4.451-5.953 6.742-1.339 1.144-6.915 5.921-10.438 4.816-.767-.241-.579-1.257.233-2.546 1.162-1.846 2.672-4.525 3.229-5.316l6.64-9.55a1.51 1.51 0 0 0-1.201-2.177l-3.591-.359a2.48 2.48 0 0 0-2.305 1.084l-.117.174c-.226.337-.722.316-.931-.033a5.16 5.16 0 0 0-.394-.569c-2.889-3.637-10.056-2.908-17.02 1.378a33.38 33.38 0 0 0-3.288 2.308c-7.867 6.251-11.529 14.735-8.18 18.951 2.64 3.321 8.845 3 15.207-.345.37.89.424 2.631 3.436 3.745 2.467.913 5.301.756 7.612.291.908-.182 1.736-.412 2.428-.643 3.074-1.024 6.708-2.9 9.197-4.35 3.048-1.776 4.305-3.052 5.015-3.635.487-.399 2.472-2.118 3.165-2.956.65-.786.908-1.153 1.116-2.152.177-.853.073-2.416 0-3.195-.207-2.227-.411-3.235-1.154-5.247l.001.001zM36.155 40.435c-1.595 1.551-3.278 2.803-4.88 3.695-3.038 1.691-5.784 2.081-7.085.743-1.858-1.91-.115-6.661 3.892-10.942.28-.3.572-.599.875-.894 4.622-4.495 9.978-6.481 11.966-4.439s-.148 7.344-4.769 11.837z" fill="#fff"/><path d="M68.361 35.633c-.386.513-1.201.215-1.167-.427l.023-.883c0-5.693-2.906-10.765-7.438-14.042a11.64 11.64 0 0 0-1.825-1.174 14.29 14.29 0 0 0-1.785-.779c-3.355-1.209-7.418-1.393-11.381-1.041-.645.057-1.293.139-1.941.243a34.52 34.52 0 0 0-4.529 1.055c-2.801.847-5.577 2.02-8.26 3.369-5.478 2.752-10.463 6.402-13.869 10.846-2.827 3.688-4.742 7.932-4.795 11.849-.006.45-.602.609-.827.22-1.813-3.127-2.61-6.997-2.785-10.829a2.98 2.98 0 0 1 .576-1.903l.048-.066c4.006-5.446 9.908-10.699 18.474-14.962 2.538-1.263 5.43-2.444 8.499-3.436 6.35-2.053 13.455-3.291 19.737-2.757.455.039.908.09 1.358.152 5.147.705 9.885 2.905 12.68 6.463 3.692 4.698 3.921 11.86-.794 18.101z" fill="#f9c6d2"/></svg>